<svg xmlns="http://www.w3.org/2000/svg" viewBox="0 0 36.58 57.9"><defs><style>.cls-1{fill:#818181;}.cls-2{fill:#fff;}</style></defs><g id="Layer_2" data-name="Layer 2"><g id="Content"><path class="cls-1" d="M8.77,7.58a43,43,0,0,0,4.06,3.33,43.82,43.82,0,0,0,4.23,2.74h-.27c-3,0-5.39,3.38-6.7,5.69a2.43,2.43,0,0,0-.55.56A2.32,2.32,0,0,0,9.18,21a24.61,24.61,0,0,0-2.44,7Q4.16,21.26,1.57,14.6A33.39,33.39,0,0,0,.83,11C.58,10.06.29,9.15,0,8.31.71,7.33,1.44,6.24,2.17,5S3.56,2.57,4.11,1.44L5.37,3A23.88,23.88,0,0,0,6.9,5.35,20.48,20.48,0,0,0,8.77,7.58Z"/><path class="cls-2" d="M4.11,1.44C3.58,2.49,3,3.59,2.31,4.72,1.54,6,.76,7.22,0,8.31c.3.89.58,1.84.84,2.86.31,1.21.55,2.36.73,3.43q2.58,6.68,5.17,13.34a24.57,24.57,0,0,1,4-9.93,23.75,23.75,0,0,1,3.73-4.23.57.57,0,0,0,0-.81c-.42-.44-1-1-1.58-1.6C11.24,9.78,10.2,8.92,9.49,8.28A20.89,20.89,0,0,1,5.36,2.93a4.31,4.31,0,0,1-.59-.56A4.93,4.93,0,0,1,4.11,1.44Z"/><path class="cls-2" d="M22.09,12.76a.71.71,0,0,0,0,1.08,23.39,23.39,0,0,1,4.58,5.45,23.51,23.51,0,0,1,3.16,8.83q2.43-6.32,4.88-12.63c.19-1.24.43-2.55.74-3.93.26-1.14.55-2.23.84-3.25l-3.9-6.65a5.74,5.74,0,0,1-.65.81,5.44,5.44,0,0,1-.6.53,21.66,21.66,0,0,1-1.39,2.16A35.67,35.67,0,0,1,25.18,10c-.75.72-1.58,1.48-2.57,2.33Z"/><path class="cls-1" d="M5.65,2.3c.07-.77.15-1.53.22-2.3A2.74,2.74,0,0,0,4.81.55a2.8,2.8,0,0,0-.7.89A5.84,5.84,0,0,0,4.45,2a5.23,5.23,0,0,0,.91,1c-.25-.46-.91-1.77-.61-2.07A.26.26,0,0,1,4.89.8c.17,0,.26.39.51,1C5.5,2,5.59,2.19,5.65,2.3Z"/><path class="cls-1" d="M27.82,7.58a44.49,44.49,0,0,1-4.07,3.33,42.62,42.62,0,0,1-4.23,2.74h.27c3.84,0,6.73,5.74,7.8,7.84a26.78,26.78,0,0,1,2.25,6.46Q32.44,21.26,35,14.6A36.07,36.07,0,0,1,35.75,11c.26-1,.54-1.89.83-2.73-.71-1-1.44-2.07-2.16-3.28s-1.4-2.46-2-3.59L31.21,3a22,22,0,0,1-1.52,2.39A23,23,0,0,1,27.82,7.58Z"/><path class="cls-2" d="M32.47,1.44c.53,1.05,1.13,2.15,1.8,3.28C35,6,35.82,7.22,36.58,8.31c-.29.89-.58,1.84-.84,2.86-.31,1.21-.55,2.36-.73,3.43q-2.58,6.68-5.17,13.34a24.43,24.43,0,0,0-4-9.93,24.14,24.14,0,0,0-3.72-4.23.56.56,0,0,1,0-.81c.42-.44,1-1,1.59-1.6,1.63-1.59,2.68-2.45,3.38-3.09a20.88,20.88,0,0,0,4.14-5.35,5.88,5.88,0,0,0,.59-.56A5.32,5.32,0,0,0,32.47,1.44Z"/><path class="cls-1" d="M30.93,2.3c-.07-.77-.14-1.53-.22-2.3a2.74,2.74,0,0,1,1.06.55,2.66,2.66,0,0,1,.7.89,4.28,4.28,0,0,1-.34.54,5.22,5.22,0,0,1-.9,1c.24-.46.9-1.77.6-2.07A.26.26,0,0,0,31.7.8c-.18,0-.27.39-.52,1C31.08,2,31,2.19,30.93,2.3Z"/><path class="cls-1" d="M13.61,38.26Q11.87,44.62,10.12,51c-.17.64-.34,1.27-.52,1.9C7.91,46.73,6.35,40.28,5,33.54c-.1-.47-.19-.94-.29-1.41q-.56-2.84-1.07-5.73c-.44-2.47-.85-4.92-1.22-7.33.45,1.2.92,2.43,1.42,3.66l.13.34c.23.57.46,1.12.69,1.68l.6,1.45c.44,1,.88,2,1.32,3v0a.15.15,0,0,0,.21.07h0a.16.16,0,0,0,.07-.09c.45-1.55,1-3.19,1.67-4.89Q9.06,23,9.63,21.7a4.54,4.54,0,0,0,.63.32,4.59,4.59,0,0,0,1.1.35,5.15,5.15,0,0,0,1.69,0c.26.88.51,1.75.76,2.63-.21.26-.51.65-.85,1.13A7.14,7.14,0,0,0,11.86,28a13.54,13.54,0,0,0,0,2.38c0,.19,0,.36,0,.47a10.26,10.26,0,0,0-.21,1.53,7.5,7.5,0,0,0,.68,4.35A5.69,5.69,0,0,0,13.61,38.26Z"/><path class="cls-2" d="M13.61,38.26Q11.87,44.62,10.12,51A112.94,112.94,0,0,1,5,33.54l0-.15c-.09-.42-.17-.84-.26-1.26C4,28.46,3.49,25,3.17,21.77c.26.41.52.84.78,1.3s.46,1.12.69,1.68l.6,1.45c.44,1,.88,2,1.32,3a.19.19,0,0,0,.22.1h0a.19.19,0,0,0,.12-.11c.48-1.19,1-2.43,1.61-3.7S9.67,23.12,10.26,22a4.59,4.59,0,0,0,1.1.35,5.15,5.15,0,0,0,1.69,0c.26.88.51,1.75.76,2.63-.21.26-.51.65-.85,1.13A7.14,7.14,0,0,0,11.86,28a13.54,13.54,0,0,0,0,2.38c0,.19,0,.36,0,.47a10.26,10.26,0,0,0-.21,1.53,7.5,7.5,0,0,0,.68,4.35A5.69,5.69,0,0,0,13.61,38.26Z"/><path class="cls-1" d="M11,19.31c.21-.33.43-.68.69-1s.44-.58.65-.85a7.75,7.75,0,0,0,.05,1.34l.06.41a2.44,2.44,0,0,1-.74.19A2.12,2.12,0,0,1,11,19.31Z"/><path class="cls-1" d="M33.83,19.93c-.41,3.29-1,6.72-1.71,10.28-.25,1.19-.53,2.41-.82,3.63-.09.35-.17.7-.26,1-.24,1-.49,1.93-.75,2.87-.14-.5-.3-1.17-.46-2-.08-.41-.16-.84-.24-1.31-.1-.65-.19-1.52-.37-3.24,0,0-.45-4.24-1.45-4.72a.76.76,0,0,1-.17-.12.69.69,0,0,1-.18-.27c0-.06-.51-.74-1.46-2.1s-2-2.77-2.31-3.2c.13-.68.27-1.36.4-2.05l.24-1.25a30.57,30.57,0,0,1,2.89,4.75,2.56,2.56,0,0,0,.11.24,30.76,30.76,0,0,1,2.37,7,.08.08,0,0,0,.15,0L31.26,26l.11-.26C32.18,23.79,33,21.84,33.83,19.93Z"/><path class="cls-2" d="M33.21,21.85c-.37,2.79-.73,5.57-1.09,8.36-.25,1.19-.53,2.41-.82,3.63-.09.35-.17.7-.26,1l-.73,1.78c-.08-.13-.16-.26-.24-.41s-.17-.31-.24-.46c-.08-.41-.16-.84-.24-1.31-.1-.65-.19-1.52-.37-3.24,0,0-.45-4.24-1.45-4.72a.76.76,0,0,1-.17-.12.69.69,0,0,1-.18-.27c0-.06-.51-.74-1.46-2.1s-2-2.77-2.31-3.2c.13-.68.27-1.36.4-2.05l.1.08a14.5,14.5,0,0,1,3,3.42,2.56,2.56,0,0,0,.11.24,30.76,30.76,0,0,1,2.37,7,.08.08,0,0,0,.15,0L31.26,26Z"/><path class="cls-1" d="M15.19,14.67a13.42,13.42,0,0,1,3.28-.33,13.81,13.81,0,0,1,3.16.46,8.08,8.08,0,0,0-3.13-.75A7.93,7.93,0,0,0,15.19,14.67Z"/><path class="cls-2" d="M27,26.11l-2.25-.69-.17-.05a13.8,13.8,0,0,1-3.15-1.11,5.47,5.47,0,0,1-2.21-3.2,2.85,2.85,0,0,1-.28.18c-1.29.71-2.29-.12-4.07.24-.67.14-.67.29-1.49.43a5.72,5.72,0,0,1-1.89,0,3.49,3.49,0,0,1-1.21-.36,2,2,0,0,1-.47-.38,2.23,2.23,0,0,1-.32-.5c0-.05,0-.1,0-.15l0,0c.06-.08.23,0,.25,0a.77.77,0,0,0,0-.15.25.25,0,0,1-.2-.1.27.27,0,0,1,0-.2.55.55,0,0,1,0-.13c.18-.3.71-.22,1.67-.19a3.82,3.82,0,0,0,1.68-.17c.15-.07.11-.11.5-.31a14.45,14.45,0,0,1,1.28-.69,7.75,7.75,0,0,1,2.9-.47c.19,0,1.89-.23,2.35-.27a.46.46,0,0,1,.17,0,1,1,0,0,1,.6.35,29.52,29.52,0,0,1,1.95,2.29c.59.85.4.45,1.89,2.38l1.4,1.87C26.35,25.29,26.7,25.76,27,26.11Z"/><path class="cls-1" d="M11.74,20.34a4.78,4.78,0,0,1-1.27.19H9.7l0-.15c.36,0,.74,0,1.15,0Z"/><path class="cls-1" d="M24.53,25.37a13.8,13.8,0,0,1-3.15-1.11,5.47,5.47,0,0,1-2.21-3.2,2.85,2.85,0,0,1-.28.18c-1.29.71-2.29-.12-4.07.24-.67.14-.67.29-1.49.43a5.72,5.72,0,0,1-1.89,0,3.49,3.49,0,0,1-1.21-.36l.06-.06.72.08a6.1,6.1,0,0,0,1.59,0,7,7,0,0,0,1.18-.45,9.76,9.76,0,0,1,1.55-.46c1.18-.23,1.29.06,2.36-.22a13,13,0,0,0,1.3-.44c.27-.12.5-.22.66-.31l.3.44A27.53,27.53,0,0,0,24.53,25.37Z"/><path class="cls-2" d="M31.77,48.71a4.14,4.14,0,0,1,0,.45c-.11,1.71-.78,3-2.42,5.65-.57.9-1.25,1.95-2,3.09-.63-.65-1.52-1.61-2.51-2.83C22.47,52.25,21,50.4,20,47.68a31.47,31.47,0,0,1-1.11-5.27c-.3-1.81-.47-3.33-.58-4.4l1.37.52-.59-.6c-.88-.85-1.28-1.09-1.83-1.74a8.19,8.19,0,0,1-.66-.9,2.54,2.54,0,0,0,1.08-.14c.11,0,.47-.18.45-.27s-.76.06-1.52-.13a4.15,4.15,0,0,1-1.9-1.31c-1-1-1.53-1.86-1.69-1.78s-.07.21.14.83a3.59,3.59,0,0,0,.28.44,5.19,5.19,0,0,0,1.26,1.21c-.08.31-.16.62-.25.93-.24.85-.49,1.68-.74,2.48A6.85,6.85,0,0,1,12.28,35,7.2,7.2,0,0,1,12,33.6,7.27,7.27,0,0,1,12.3,31a3.89,3.89,0,0,1,.51-1.27,2.94,2.94,0,0,1,.41-.46c1-.94,9.13,3.45,9.23,3.29a11.94,11.94,0,0,0-3.06-2c-.34-.17-.79-.36-1.69-.73-2.65-1.09-3.63-1.33-4.56-1l-.21.09a1.94,1.94,0,0,1,.14-.37,1.82,1.82,0,0,1,.4-.57,3.33,3.33,0,0,1,1-.72c1.29-.59,2.92.27,5.55.74.82.14,1.54.22,2.12.26l-.23-.11c-.29-.14-.61-.27-.94-.4a15.68,15.68,0,0,0-2.29-.7,15,15,0,0,0-3.32-.49,2.76,2.76,0,0,0-.89.05c-1.38.35-2,2.1-2.21,2.79a5.11,5.11,0,0,1,0-.82c0-.16,0-.31,0-.45a3.18,3.18,0,0,1,.06-.37,13,13,0,0,1,1.77-2.56c.42-.46.26-.22,1.28-1.24a2.46,2.46,0,0,1,.94-.72,1.86,1.86,0,0,1,1.12,0C19,23.71,20.83,24.58,22,25A21.25,21.25,0,0,0,25,26a13.82,13.82,0,0,1,2.31.81,1.88,1.88,0,0,1,.52.39,1.91,1.91,0,0,1,.19.28,1.81,1.81,0,0,1,.07.19,40.48,40.48,0,0,1,.95,6.64c.1,1.55.24.67,1,4.83.75,4.38,1.13,6.57,1.13,7.21A4.79,4.79,0,0,0,31.43,48a4.94,4.94,0,0,0,.24.54Z"/><path class="cls-1" d="M24.21,27.73a3.48,3.48,0,0,1-.43.21,3.84,3.84,0,0,1-1.88.24c-.29-.14-.61-.27-.94-.4a15.68,15.68,0,0,0-2.29-.7,15,15,0,0,0-3.32-.49,2.76,2.76,0,0,0-.89.05c-1.38.35-2,2.1-2.21,2.79a5.11,5.11,0,0,1,0-.82c0-.16,0-.31,0-.45.66-1.09,1.88-2.67,3.55-2.77a6.5,6.5,0,0,1,2.3.62c2.2.8,2.92,1.56,4.6,1.74A6.46,6.46,0,0,0,24.21,27.73Z"/><path class="cls-1" d="M31.77,48.71a4.14,4.14,0,0,1,0,.45c-.11,1.71-.78,3-2.42,5.65-.57.9-1.25,1.95-2,3.09-.63-.65-1.52-1.61-2.51-2.83C22.47,52.25,21,50.4,20,47.68a31.47,31.47,0,0,1-1.11-5.27c-.3-1.81-.47-3.33-.58-4.4l1.37.52-.59-.6c-.88-.85-1.28-1.09-1.83-1.74a8.19,8.19,0,0,1-.66-.9,2.54,2.54,0,0,0,1.08-.14c.11,0,.47-.18.45-.27s-.76.06-1.52-.13a4.15,4.15,0,0,1-1.9-1.31c-1-1-1.53-1.86-1.69-1.78s-.07.21.14.83a3.59,3.59,0,0,0,.28.44,5.19,5.19,0,0,0,1.26,1.21c-.08.31-.16.62-.25.93-.24.85-.49,1.68-.74,2.48A6.85,6.85,0,0,1,12.28,35,7.2,7.2,0,0,1,12,33.6c0-.14,0-.28,0-.41a9.76,9.76,0,0,1,.67-2.58.2.2,0,0,1,.34-.05,8.93,8.93,0,0,0,2.57,2.31,9.25,9.25,0,0,0,4.84,1.28,9.37,9.37,0,0,1-1.1.66,7.65,7.65,0,0,1-1.24.5,4.47,4.47,0,0,0,4.24,3.91,6.44,6.44,0,0,1-.77,0,6.76,6.76,0,0,1-.72-.07,24.49,24.49,0,0,1,1,5.13,32.31,32.31,0,0,0,.24,3.7c.61,2.7,3,5.56,5,5.57,1.59,0,3.31-1.85,4.52-5Z"/></g></g></svg>